<?xml version="1.0" standalone="no"?>
<!DOCTYPE svg PUBLIC "-//W3C//DTD SVG 20010904//EN"
 "http://www.w3.org/TR/2001/REC-SVG-20010904/DTD/svg10.dtd">
<svg version="1.0" xmlns="http://www.w3.org/2000/svg"
 width="1080.000000pt" height="653.000000pt" viewBox="0 0 1080.000000 653.000000"
 preserveAspectRatio="xMidYMid meet">

<g transform="translate(0.000000,653.000000) scale(0.100000,-0.100000)"
fill="#000000" stroke="none">
<path d="M5245 6066 c-71 -18 -150 -54 -173 -79 -41 -45 -72 -199 -97 -491 -9
-99 -17 -182 -19 -184 -10 -10 -242 -86 -328 -108 -79 -20 -340 -63 -385 -64
-7 0 0 22 17 55 39 74 46 131 27 210 -27 108 -92 185 -156 185 -85 0 -216
-159 -241 -291 -19 -98 16 -178 98 -230 50 -32 93 -36 132 -14 37 21 40 18 24
-20 -23 -56 -19 -92 14 -109 44 -23 206 -39 317 -32 122 8 197 23 341 70 61
20 115 36 120 36 5 0 10 -231 11 -553 2 -303 7 -631 11 -727 l9 -175 -29 -60
c-89 -177 -290 -459 -422 -591 -133 -133 -211 -161 -276 -99 -87 83 -100 187
-70 576 11 151 27 326 35 389 23 176 65 562 65 593 0 34 -12 35 -115 1 -112
-36 -239 -99 -264 -130 -25 -32 -55 -131 -72 -239 -18 -110 -18 -615 -1 -760
31 -253 62 -407 102 -500 59 -138 270 -257 430 -242 124 11 234 101 405 332
76 102 208 305 221 340 11 28 19 15 31 -46 6 -33 30 -97 53 -143 105 -212 303
-317 521 -276 72 14 124 40 188 96 46 41 56 46 72 36 46 -29 104 -1 138 66 10
21 42 102 70 182 34 93 76 187 121 266 117 203 231 457 294 654 44 133 46 172
10 205 l-25 23 27 76 26 76 87 -7 c76 -5 98 -2 178 21 75 22 95 25 116 15 42
-19 60 -70 55 -158 -4 -74 -13 -104 -144 -526 -19 -60 -44 -157 -56 -214 -25
-127 -18 -184 38 -296 69 -141 183 -217 334 -223 151 -7 260 46 410 197 83 83
208 246 265 343 15 27 28 48 30 48 2 0 20 -27 40 -59 47 -78 130 -153 213
-193 151 -72 382 -39 564 81 235 155 374 431 413 822 6 59 10 68 33 79 93 42
363 297 537 507 191 230 252 340 226 406 -25 63 -69 45 -146 -58 -84 -115
-210 -249 -339 -365 -125 -111 -306 -251 -317 -245 -3 3 -9 39 -13 80 -8 85
-45 225 -78 288 -33 65 -89 137 -156 198 -114 106 -228 155 -387 168 -115 9
-158 1 -272 -53 -144 -69 -266 -193 -294 -299 -6 -23 -20 -64 -31 -92 -136
-327 -169 -642 -97 -930 l21 -85 -40 -67 c-114 -193 -268 -370 -363 -419 -70
-36 -178 -41 -204 -9 -62 77 -71 182 -29 317 14 46 62 172 106 281 80 200 118
323 118 383 0 78 -70 247 -134 321 -89 103 -173 119 -336 63 -94 -32 -181 -43
-200 -24 -6 6 -3 29 7 63 24 82 15 229 -19 302 -29 63 -87 133 -129 155 -43
22 -137 18 -189 -8 -155 -79 -296 -481 -223 -640 19 -42 37 -58 111 -104 2 -1
-21 -89 -51 -196 -30 -106 -96 -355 -147 -553 -52 -205 -101 -375 -113 -395
-35 -57 -135 -172 -190 -219 -70 -59 -126 -83 -197 -83 -129 0 -224 99 -270
279 -31 119 -28 173 28 463 94 491 163 973 184 1281 l11 176 66 17 c166 41
416 75 631 85 132 6 160 10 183 27 48 35 74 138 44 178 -20 28 -169 45 -382
46 -184 0 -281 -8 -438 -36 -49 -8 -90 -14 -91 -12 -2 2 -8 75 -14 163 -12
169 -33 303 -58 366 -11 26 -25 41 -46 48 -37 13 -49 13 -113 -3z m3267 -1037
c41 -30 85 -90 123 -170 51 -109 76 -215 82 -355 l6 -122 -54 -18 c-40 -14
-83 -19 -164 -19 -100 0 -115 2 -161 27 -56 30 -103 78 -134 138 -30 59 -70
206 -70 259 0 91 126 234 240 274 51 18 93 13 132 -14z m-334 -878 c81 -55
129 -77 197 -91 69 -14 175 -8 249 15 73 22 75 22 65 -30 -54 -288 -186 -467
-362 -491 -62 -9 -109 10 -162 62 -54 55 -98 142 -127 254 l-22 85 50 117 c27
65 50 118 52 118 1 0 28 -17 60 -39z"/>
<path d="M3415 5905 c-95 -27 -197 -85 -260 -150 -184 -188 -248 -467 -259
-1125 l-5 -235 -58 -3 c-32 -2 -89 2 -127 8 -80 14 -85 10 -77 -52 5 -37 12
-46 52 -71 29 -18 79 -34 135 -46 l89 -17 17 -250 c9 -137 21 -347 27 -466 12
-227 13 -963 2 -1228 l-6 -155 -39 68 c-50 89 -94 193 -167 400 -116 329 -283
917 -370 1302 -72 324 -110 477 -170 697 -79 291 -224 762 -252 818 -31 63
-79 93 -136 86 -68 -9 -225 -108 -294 -184 -16 -18 -19 -76 -32 -748 -15 -747
-25 -1072 -50 -1719 -17 -419 -19 -1050 -5 -1200 20 -208 60 -341 126 -421 60
-74 119 -92 229 -69 66 14 214 85 268 129 l29 23 -24 49 c-90 180 -194 613
-218 904 -36 436 -56 1344 -43 1985 l8 440 47 -130 c146 -410 239 -729 382
-1320 163 -674 249 -938 431 -1327 187 -397 279 -505 407 -476 23 5 57 18 74
29 45 27 110 101 130 146 42 99 61 1280 31 1963 -9 206 -19 454 -22 550 l-6
175 73 45 c95 59 239 204 311 311 184 278 245 581 177 889 -38 176 -93 280
-179 338 -76 52 -149 63 -246 37z m162 -330 c39 -27 58 -99 57 -215 0 -115
-12 -183 -51 -305 -51 -158 -166 -357 -258 -445 l-47 -45 5 235 c10 423 80
680 206 761 52 33 59 34 88 14z"/>
<path d="M8141 2374 c-219 -59 -391 -234 -447 -454 -24 -95 -15 -262 18 -352
35 -94 83 -169 150 -236 254 -253 658 -240 901 28 178 197 207 496 70 729 -61
103 -149 184 -256 235 -51 24 -116 49 -145 55 -73 15 -226 13 -291 -5z m304
-34 c203 -52 360 -207 421 -415 21 -71 23 -227 5 -295 -25 -90 -81 -190 -146
-258 -118 -125 -253 -184 -420 -185 -68 0 -119 5 -160 17 -192 57 -338 195
-400 380 -115 342 88 688 450 769 53 12 177 6 250 -13z"/>
<path d="M8346 2138 c-2 -7 -8 -40 -15 -73 -6 -33 -23 -111 -37 -172 -26 -110
-28 -114 -80 -165 -63 -62 -89 -77 -131 -78 -35 0 -60 20 -69 56 -15 61 30
160 86 189 28 15 30 14 30 -4 0 -10 -7 -21 -15 -25 -31 -11 -9 -62 22 -52 20
6 43 45 43 71 0 8 -9 24 -20 35 -68 68 -204 -55 -203 -186 0 -58 13 -87 49
-111 52 -34 126 -12 203 61 l44 41 -7 -30 c-4 -16 -9 -37 -12 -46 -5 -19 20
-43 39 -36 14 5 137 462 137 510 0 23 -4 27 -30 27 -17 0 -32 -6 -34 -12z"/>
<path d="M8501 1912 c-52 -26 -86 -100 -86 -184 0 -57 4 -70 25 -93 22 -23 31
-26 68 -22 50 5 87 35 111 89 12 26 39 51 94 88 42 28 77 58 77 66 0 9 -21 0
-62 -26 -76 -50 -88 -50 -88 -4 0 28 -8 44 -34 70 -39 39 -57 41 -105 16z m87
-56 c15 -53 5 -86 -27 -86 -37 0 -51 17 -51 62 0 63 62 82 78 24z m-47 -126
c36 0 38 -22 4 -55 -47 -48 -85 -24 -85 53 0 50 8 57 32 27 13 -17 30 -25 49
-25z"/>
<path d="M3334 581 c-53 -32 -64 -100 -26 -159 8 -12 52 -40 98 -62 89 -42
112 -67 94 -100 -35 -65 -141 -41 -165 38 -4 13 -14 22 -26 22 -17 0 -19 -7
-19 -65 0 -57 2 -65 19 -65 11 0 21 5 23 11 2 7 12 7 31 0 16 -6 51 -11 78
-11 86 0 139 42 139 111 0 51 -29 83 -114 123 -41 20 -81 42 -90 51 -41 41 3
103 62 90 33 -7 66 -39 77 -73 4 -14 13 -22 23 -20 13 3 18 17 20 66 3 56 1
62 -17 62 -11 0 -23 -5 -26 -10 -4 -7 -12 -7 -25 0 -32 17 -122 12 -156 -9z"/>
<path d="M3798 592 c-50 -3 -58 -6 -58 -23 0 -13 6 -19 18 -17 15 3 17 -10 20
-137 3 -153 -1 -185 -23 -185 -8 0 -15 -9 -15 -20 0 -18 7 -20 80 -20 73 0 80
2 80 20 0 13 -7 20 -20 20 -19 0 -20 7 -20 155 0 144 1 156 20 167 47 30 16
45 -82 40z"/>
<path d="M4338 589 c-17 -11 0 -40 19 -37 16 3 18 -8 21 -110 2 -69 -1 -113
-7 -110 -5 1 -55 60 -111 131 l-102 127 -44 0 c-37 0 -44 -3 -44 -20 0 -13 7
-20 20 -20 19 0 20 -7 20 -144 0 -152 -4 -176 -26 -176 -8 0 -14 -9 -14 -20 0
-19 5 -21 62 -18 50 2 63 6 66 21 2 12 -3 17 -17 17 -20 0 -21 5 -21 116 l0
115 78 -98 c42 -54 90 -115 105 -136 19 -25 36 -37 53 -37 l24 0 0 175 c0 164
1 176 20 187 35 22 23 36 -36 40 -31 1 -61 0 -66 -3z"/>
<path d="M4725 585 c-146 -73 -154 -304 -13 -376 48 -24 130 -27 179 -6 46 19
83 61 75 83 -6 15 -10 14 -34 -9 -76 -73 -181 -59 -218 29 -22 53 -18 152 9
199 45 80 149 80 182 0 25 -59 45 -46 45 30 0 57 -2 65 -19 65 -11 0 -21 -5
-23 -11 -2 -7 -12 -7 -31 0 -41 16 -117 13 -152 -4z"/>
<path d="M5879 577 c-28 -19 -34 -29 -34 -57 0 -29 4 -36 24 -38 28 -4 43 14
36 45 -5 22 17 43 44 43 24 0 51 -41 51 -76 0 -46 -12 -68 -75 -134 -64 -69
-82 -97 -87 -135 l-3 -30 119 -3 c131 -3 136 -1 136 56 0 25 -4 32 -19 32 -10
0 -21 -7 -25 -15 -7 -19 -146 -22 -146 -3 0 6 38 48 84 92 47 45 90 94 96 110
15 41 4 81 -32 111 -40 34 -120 35 -169 2z"/>
<path d="M6335 580 c-67 -42 -102 -169 -76 -268 34 -123 167 -166 247 -79 39
42 54 91 54 172 -1 115 -62 195 -148 195 -29 0 -59 -8 -77 -20z m104 -27 c41
-34 54 -223 20 -296 -14 -31 -48 -44 -77 -28 -58 31 -65 268 -11 322 24 24 41
24 68 2z"/>
<path d="M6770 583 c-37 -26 -50 -45 -47 -73 2 -21 7 -25 32 -25 27 0 30 4 33
32 6 62 73 67 92 7 17 -51 -2 -93 -76 -175 -64 -69 -84 -102 -84 -140 0 -18 8
-19 125 -19 l125 0 0 45 c0 47 -13 58 -34 30 -9 -13 -28 -15 -84 -13 l-72 3
21 30 c12 17 38 43 58 59 69 56 111 114 111 152 0 46 -14 70 -50 89 -39 20
-119 19 -150 -2z"/>
<path d="M7206 570 c-46 -41 -71 -109 -70 -186 3 -121 60 -194 154 -194 98 0
155 78 154 210 -1 129 -56 200 -156 200 -38 0 -54 -6 -82 -30z m114 -10 c27
-14 40 -71 40 -173 0 -105 -16 -153 -55 -163 -54 -13 -84 50 -85 176 0 82 15
135 43 155 25 18 32 18 57 5z"/>
<path d="M5120 569 c0 -16 5 -20 20 -16 19 5 20 0 20 -143 0 -156 -3 -180 -26
-180 -8 0 -14 -9 -14 -20 0 -19 7 -20 150 -20 l150 0 0 65 c0 72 -19 90 -35
33 -12 -39 -45 -58 -102 -58 l-43 0 0 75 0 75 30 0 c23 0 33 -6 42 -25 6 -14
17 -25 25 -25 10 0 13 18 13 70 0 63 -2 70 -20 70 -15 0 -20 -7 -20 -25 0 -22
-4 -25 -35 -25 l-35 0 0 51 c0 71 12 89 59 89 40 0 71 -23 71 -53 0 -10 8 -17
20 -17 17 0 20 7 20 50 l0 50 -145 0 c-141 0 -145 -1 -145 -21z"/>
</g>
</svg>
